<?xml version="1.0" standalone="no"?>
<!DOCTYPE svg PUBLIC "-//W3C//DTD SVG 20010904//EN"
 "http://www.w3.org/TR/2001/REC-SVG-20010904/DTD/svg10.dtd">
<svg version="1.0" xmlns="http://www.w3.org/2000/svg"
 width="302.000000pt" height="167.000000pt" viewBox="0 0 302.000000 167.000000"
 preserveAspectRatio="xMidYMid meet">

<g transform="translate(0.000000,167.000000) scale(0.100000,-0.100000)"
fill="#000000" stroke="none">
<path d="M638 1573 c18 -2 45 -2 60 0 15 2 0 4 -33 4 -33 0 -45 -2 -27 -4z"/>
<path d="M758 1563 c7 -3 16 -2 19 1 4 3 -2 6 -13 5 -11 0 -14 -3 -6 -6z"/>
<path d="M798 1553 c7 -3 16 -2 19 1 4 3 -2 6 -13 5 -11 0 -14 -3 -6 -6z"/>
<path d="M875 1527 c54 -26 146 -95 181 -137 62 -72 74 -84 74 -72 0 7 -35 48
-77 90 -74 73 -147 122 -203 136 -14 3 -2 -4 25 -17z"/>
<path d="M568 1425 c-114 -24 -184 -94 -194 -192 -9 -87 22 -164 77 -194 20
-10 20 -10 4 22 -50 96 34 250 150 274 26 6 25 4 -10 -13 -22 -11 -52 -32 -67
-48 -28 -30 -58 -101 -58 -136 0 -35 32 -88 61 -103 24 -13 33 -13 70 0 53 19
66 30 90 76 l19 38 -26 20 c-15 12 -33 21 -40 21 -22 0 -54 -42 -54 -72 0 -29
-17 -38 -26 -14 -8 20 22 73 51 92 24 16 60 16 96 0 13 -6 17 1 22 30 4 21 2
43 -4 50 -7 8 -2 14 17 18 35 9 37 5 25 -39 -12 -46 8 -57 47 -28 21 16 27 29
27 59 0 48 -26 64 -102 64 -29 0 -53 5 -53 10 0 16 100 12 147 -6 69 -26 72
-94 8 -134 -19 -12 -35 -26 -35 -31 0 -5 -13 -9 -30 -9 -22 0 -30 -5 -30 -18
0 -23 105 -126 119 -118 6 4 11 1 11 -6 0 -7 -10 -19 -22 -27 -20 -13 -25 -10
-73 45 l-52 58 -56 -51 c-34 -30 -71 -55 -94 -60 l-38 -10 60 -17 c267 -76
336 -106 404 -174 34 -34 56 -67 71 -110 33 -90 58 -82 79 22 22 118 10 285
-29 389 -30 78 -32 81 -86 79 -70 -3 -81 3 -88 51 -6 35 -76 168 -76 144 0 -5
-16 4 -35 18 -19 15 -49 29 -67 31 -86 10 -158 10 -210 -1z m99 -81 c-3 -3
-12 -4 -19 -1 -8 3 -5 6 6 6 11 1 17 -2 13 -5z"/>
<path d="M235 1369 c-4 -6 -5 -12 -2 -15 2 -3 7 2 10 11 7 17 1 20 -8 4z"/>
<path d="M1188 1303 c17 -2 47 -2 65 0 17 2 3 4 -33 4 -36 0 -50 -2 -32 -4z"/>
<path d="M1798 1303 c23 -2 61 -2 85 0 23 2 4 4 -43 4 -47 0 -66 -2 -42 -4z"/>
<path d="M2418 1303 c12 -2 32 -2 45 0 12 2 2 4 -23 4 -25 0 -35 -2 -22 -4z"/>
<path d="M164 1267 c-29 -45 -71 -153 -89 -229 -61 -263 10 -560 177 -743 133
-146 328 -219 500 -186 126 23 271 114 352 220 l38 51 674 0 c681 0 740 3 809
37 88 44 160 131 205 248 20 51 24 78 24 180 0 135 -17 194 -82 294 -34 50
-140 141 -166 141 -6 0 5 -9 24 -21 210 -125 278 -439 145 -659 -47 -78 -110
-139 -175 -169 l-55 -26 -705 -2 -705 -3 -28 -32 c-64 -74 -122 -129 -148
-140 -15 -7 -26 -15 -23 -19 6 -11 -116 -56 -187 -69 -38 -7 -93 -9 -137 -5
-86 8 -188 46 -186 69 1 9 -2 13 -7 10 -21 -12 -125 68 -113 88 3 4 -1 5 -9 2
-9 -3 -24 8 -38 28 -13 18 -27 35 -31 36 -5 2 -5 9 -2 14 4 7 2 8 -4 4 -14 -8
-46 50 -38 69 3 9 0 12 -8 9 -7 -3 -17 6 -23 18 -6 13 -16 34 -22 48 -14 30
-39 117 -53 185 -6 28 -8 106 -5 175 6 143 29 239 83 339 37 71 41 88 8 38z"/>
<path d="M1185 1250 c-4 -7 219 -10 663 -10 447 0 680 -4 703 -11 93 -29 158
-89 206 -188 31 -64 37 -87 41 -167 7 -141 -27 -243 -111 -334 l-42 -45 48 45
c206 192 135 604 -119 699 -53 20 -73 21 -719 21 -432 0 -666 -3 -670 -10z"/>
<path d="M1178 1225 c-3 -4 4 -30 17 -58 42 -92 59 -181 59 -322 0 -139 -13
-208 -59 -312 -26 -58 -31 -83 -16 -83 19 0 82 220 89 312 4 59 11 93 20 96 9
3 12 -24 12 -111 0 -112 -1 -116 -22 -120 -13 -2 12 -5 55 -6 43 0 87 4 98 9
29 16 49 64 49 119 0 42 -5 56 -31 86 -30 34 -33 35 -104 35 l-72 0 -6 76 c-8
94 -72 295 -89 279z m249 -402 c18 -43 13 -153 -7 -178 -7 -8 -25 -15 -41 -15
l-29 0 0 115 0 115 31 0 c25 0 32 -6 46 -37z"/>
<path d="M217 1161 c-28 -48 -59 -199 -60 -296 -1 -90 17 -212 36 -250 15 -30
27 -35 89 -35 48 0 58 3 63 20 11 35 54 60 104 60 47 0 73 -12 123 -58 15 -14
33 -22 42 -19 29 11 25 -10 -5 -32 l-30 -22 -36 41 c-62 70 -120 88 -161 50
-44 -41 -42 -139 3 -177 29 -26 66 -33 46 -9 -14 17 11 41 34 32 8 -3 14 0 12
6 -1 6 17 17 41 24 24 7 42 9 42 3 0 -5 5 -9 10 -9 6 0 10 6 10 14 0 17 25 27
47 19 12 -5 15 -2 10 10 -4 10 -2 16 5 14 7 -1 13 19 14 55 3 57 30 128 51
135 6 2 17 -5 23 -16 8 -16 6 -34 -10 -80 -23 -70 -24 -81 -9 -132 l12 -37 57
81 c32 45 72 101 90 125 17 24 30 45 28 47 -26 23 -180 77 -297 105 -62 14
-171 62 -202 88 -85 71 -106 100 -125 172 -9 36 -22 73 -28 82 -11 15 -14 14
-29 -11z"/>
<path d="M1518 1123 c21 -4 22 -8 22 -114 0 -104 -1 -110 -22 -119 -17 -6 -7
-9 42 -9 49 0 59 3 43 9 -20 8 -23 17 -23 65 l0 56 33 -3 c31 -3 32 -4 35 -55
2 -29 9 -57 17 -63 16 -14 45 -7 45 10 0 6 -4 8 -10 5 -6 -4 -10 7 -10 25 0
32 -15 70 -32 81 -5 3 2 13 16 23 31 20 34 56 8 79 -15 13 -37 17 -103 16 -46
-1 -74 -4 -61 -6z m132 -23 c21 -39 -12 -87 -50 -75 -16 5 -20 15 -20 51 0 42
1 44 30 44 19 0 33 -7 40 -20z"/>
<path d="M1736 1120 c25 -10 44 -49 75 -153 13 -42 28 -76 33 -74 16 5 30 88
17 96 -6 4 -20 37 -31 74 l-21 67 -47 -1 c-36 0 -42 -2 -26 -9z"/>
<path d="M1896 1108 c-3 -13 -1 -24 4 -26 6 -2 10 -44 10 -93 0 -84 -2 -90
-22 -99 -17 -6 -7 -9 42 -9 49 0 59 3 43 9 -22 9 -23 15 -23 119 0 106 1 110
23 114 12 2 1 5 -24 6 -41 1 -47 -2 -53 -21z"/>
<path d="M2017 1112 c-21 -23 -22 -76 -2 -96 9 -9 34 -21 57 -28 53 -16 71
-50 41 -79 -29 -30 -60 -17 -84 34 l-19 42 0 -55 c0 -39 3 -51 10 -40 8 12 13
13 30 3 61 -39 122 27 94 102 -6 14 -43 35 -64 37 -14 1 -60 41 -60 52 0 45
70 43 94 -2 l15 -27 1 35 c0 35 0 35 -48 38 -37 2 -52 -2 -65 -16z"/>
<path d="M1761 933 c-1 -12 -11 -29 -23 -37 -22 -15 -21 -16 27 -16 41 0 46 2
32 13 -9 6 -21 23 -26 37 -9 24 -10 24 -10 3z"/>
<path d="M1524 859 c-8 -14 11 -33 25 -25 11 7 4 36 -9 36 -5 0 -12 -5 -16
-11z"/>
<path d="M2490 850 c0 -11 7 -20 15 -20 8 0 15 9 15 20 0 11 -7 20 -15 20 -8
0 -15 -9 -15 -20z"/>
<path d="M2393 819 c-7 -15 -18 -30 -25 -33 -9 -4 -10 -8 -2 -11 7 -4 10 -24
7 -53 -6 -65 9 -102 42 -102 14 0 25 4 25 10 0 5 -7 7 -15 4 -12 -5 -15 6 -15
64 0 59 3 71 18 75 15 4 15 5 0 6 -11 1 -18 12 -20 34 l-4 32 -11 -26z"/>
<path d="M1850 800 c0 -5 7 -10 15 -10 8 0 15 5 15 10 0 6 -7 10 -15 10 -8 0
-15 -4 -15 -10z"/>
<path d="M1511 771 c-9 -6 -10 -10 -2 -12 20 -7 24 -105 5 -123 -14 -15 -11
-16 33 -15 26 1 40 3 31 6 -15 4 -18 16 -18 79 0 64 -2 74 -17 74 -10 0 -24
-4 -32 -9z"/>
<path d="M1632 768 c-17 -17 -15 -48 4 -48 9 0 14 7 12 18 -1 9 1 23 5 30 10
15 -5 16 -21 0z"/>
<path d="M1682 716 c0 -70 -5 -86 -29 -86 -11 0 -14 8 -11 34 3 31 2 33 -15
25 -12 -7 -17 -19 -15 -37 3 -26 5 -27 68 -28 36 -1 59 1 53 3 -9 3 -13 26
-13 67 0 56 -11 86 -31 86 -4 0 -7 -29 -7 -64z"/>
<path d="M1788 768 c-10 -9 -18 -37 -23 -80 -7 -74 -10 -71 57 -68 29 1 38 -3
43 -19 3 -12 3 -26 -1 -32 -4 -8 -3 -9 4 -5 16 9 15 59 0 74 -7 7 -31 12 -55
12 -44 0 -57 15 -25 28 13 5 17 19 17 55 0 26 0 47 -1 47 0 0 -7 -6 -16 -12z"/>
<path d="M1841 759 c6 -12 8 -34 5 -50 -4 -21 -2 -27 8 -23 22 8 27 46 10 71
-19 30 -39 31 -23 2z"/>
<path d="M1915 770 c-17 -7 -17 -9 -2 -9 14 -1 17 -11 17 -65 0 -53 -3 -65
-17 -69 -10 -3 23 -5 72 -6 66 0 85 2 73 10 -14 8 -18 23 -18 64 0 68 -7 85
-34 84 -11 0 -15 -3 -8 -6 8 -3 12 -28 12 -74 0 -67 -1 -69 -25 -69 -23 0 -25
4 -25 44 0 25 4 56 9 69 13 34 -11 46 -54 27z"/>
<path d="M2101 754 c-28 -36 -27 -79 4 -109 34 -35 71 -33 95 7 50 82 -41 176
-99 102z m73 0 c12 -30 6 -101 -9 -114 -29 -24 -45 -4 -45 58 0 32 3 62 7 65
12 13 41 7 47 -9z"/>
<path d="M2240 760 c-16 -30 -3 -60 29 -66 29 -6 56 -38 46 -54 -11 -18 -43
-11 -59 12 l-16 22 0 -21 c0 -17 8 -24 34 -29 45 -8 56 0 56 42 0 32 -4 37
-40 51 -43 17 -51 36 -22 52 16 10 16 10 0 11 -10 0 -22 -9 -28 -20z"/>
<path d="M2302 761 c7 -9 14 -18 15 -20 2 -2 3 5 3 16 0 11 -7 20 -15 20 -12
0 -12 -3 -3 -16z"/>
<path d="M2480 770 c-10 -6 -11 -10 -2 -10 8 0 12 -20 12 -64 0 -53 -3 -65
-17 -69 -10 -3 5 -5 32 -5 28 0 42 2 33 5 -15 4 -18 16 -18 79 0 76 -6 86 -40
64z"/>
<path d="M2596 767 c-11 -8 -20 -31 -23 -58 -4 -35 -1 -48 17 -66 21 -23 64
-31 74 -14 3 4 -6 6 -19 3 -33 -6 -50 36 -38 93 6 31 13 41 31 43 20 3 22 0
16 -22 -5 -20 -2 -26 10 -26 19 0 21 31 4 48 -16 16 -50 15 -72 -1z"/>
<path d="M698 704 c-5 -4 -8 -21 -7 -38 0 -30 0 -30 10 -7 11 27 8 57 -3 45z"/>
<path d="M888 672 c-27 -32 -43 -88 -52 -184 -6 -56 -6 -56 24 -63 38 -8 38
-17 -2 -49 -31 -24 -30 -36 2 -17 8 6 18 7 23 4 11 -7 -20 -34 -57 -51 -16 -7
-26 -15 -23 -18 12 -12 97 38 129 76 43 50 58 98 58 187 0 67 -15 108 -39 108
-5 0 -16 8 -24 19 -13 17 -15 17 -39 -12z"/>
<path d="M2441 674 c0 -11 3 -14 6 -6 3 7 2 16 -1 19 -3 4 -6 -2 -5 -13z"/>
<path d="M1758 598 c-6 -16 1 -38 12 -38 4 0 8 11 8 25 0 26 -13 34 -20 13z"/>
<path d="M776 500 c-9 -17 -13 -30 -7 -30 6 0 7 -7 4 -17 -4 -11 -3 -14 6 -9
6 4 11 13 9 19 -1 7 2 22 6 35 12 35 2 36 -18 2z"/>
<path d="M605 510 c-3 -5 -1 -10 4 -10 6 0 11 5 11 10 0 6 -2 10 -4 10 -3 0
-8 -4 -11 -10z"/>
<path d="M1278 443 c45 -2 119 -2 165 0 45 1 8 3 -83 3 -91 0 -128 -2 -82 -3z"/>
<path d="M1718 443 c67 -2 177 -2 245 0 67 1 12 3 -123 3 -135 0 -190 -2 -122
-3z"/>
<path d="M2178 443 c12 -2 32 -2 45 0 12 2 2 4 -23 4 -25 0 -35 -2 -22 -4z"/>
<path d="M2358 443 c23 -2 61 -2 85 0 23 2 4 4 -43 4 -47 0 -66 -2 -42 -4z"/>
<path d="M2498 443 c6 -2 18 -2 25 0 6 3 1 5 -13 5 -14 0 -19 -2 -12 -5z"/>
<path d="M434 361 c55 -60 208 -103 307 -84 l54 10 -90 1 c-49 0 -103 3 -120
7 -50 13 -106 45 -99 57 4 6 3 8 -3 5 -6 -4 -19 0 -29 8 -27 21 -40 18 -20 -4z"/>
<path d="M1143 333 c-7 -2 -13 -18 -13 -34 0 -24 6 -32 31 -41 23 -8 29 -16
27 -32 -2 -16 -9 -21 -31 -19 -15 1 -25 -2 -22 -8 4 -5 14 -9 24 -9 46 0 55
70 11 80 -18 4 -25 12 -25 30 0 21 4 25 28 23 15 -1 25 2 22 8 -6 10 -31 11
-52 2z"/>
<path d="M1451 267 l-1 -78 27 3 c17 2 32 12 40 28 l12 24 10 -27 c18 -47 71
-29 71 24 0 43 -10 59 -37 59 -16 0 -27 -7 -30 -20 -3 -11 -9 -20 -13 -20 -4
0 -10 9 -13 20 -3 13 -14 20 -30 20 -19 0 -27 6 -30 23 -2 12 -5 -13 -6 -56z
m49 -22 c0 -24 -5 -35 -15 -35 -10 0 -15 11 -15 35 0 24 5 35 15 35 10 0 15
-11 15 -35z m88 3 c-3 -36 -30 -46 -36 -15 -5 26 5 47 23 47 12 0 15 -8 13
-32z"/>
<path d="M1629 301 c-6 -55 1 -112 12 -105 11 6 10 88 0 124 -7 22 -8 19 -12
-19z"/>
<path d="M1810 320 c-16 -29 -10 -130 7 -130 9 0 13 14 13 44 0 26 5 46 13 49
8 3 6 9 -7 19 -19 15 -19 15 0 26 17 10 17 11 2 12 -10 0 -22 -9 -28 -20z"/>
<path d="M2246 324 c-10 -26 -7 -134 4 -134 6 0 10 32 10 75 0 76 -3 88 -14
59z"/>
<path d="M2286 324 c-10 -26 -7 -134 4 -134 6 0 10 32 10 75 0 76 -3 88 -14
59z"/>
<path d="M1733 302 c-16 -10 -26 -56 -18 -81 10 -32 40 -44 59 -25 21 20 21
78 0 98 -17 18 -24 19 -41 8z m32 -57 c0 -32 -19 -45 -29 -19 -9 22 3 56 17
51 7 -2 12 -16 12 -32z"/>
<path d="M1916 294 c-21 -20 -21 -78 0 -95 21 -17 86 -12 101 8 11 15 13 15
19 0 3 -10 13 -17 20 -17 13 0 13 4 0 27 -12 24 -12 31 1 56 17 34 12 45 -11
21 -13 -13 -19 -14 -32 -4 -20 18 -28 6 -14 -20 10 -18 9 -28 -1 -49 -14 -26
-14 -26 -17 19 -5 67 -32 89 -66 54z m52 -66 c-3 -7 -11 -13 -18 -13 -7 0 -15
6 -17 13 -3 7 4 12 17 12 13 0 20 -5 18 -12z"/>
<path d="M2090 290 c-22 -22 -25 -51 -10 -81 12 -21 56 -26 63 -6 4 10 7 10
18 0 17 -17 59 -17 59 0 0 8 -10 13 -21 13 -12 -1 -24 5 -26 12 -3 8 6 12 26
12 35 0 39 14 16 47 -25 36 -65 12 -65 -39 0 -18 -7 -29 -21 -33 -24 -8 -42
11 -34 33 3 8 5 18 5 24 0 6 9 8 20 5 12 -3 20 0 20 8 0 22 -30 25 -50 5z
m110 -20 c0 -5 -4 -10 -9 -10 -6 0 -13 5 -16 10 -3 6 1 10 9 10 9 0 16 -4 16
-10z"/>
<path d="M1221 294 c-1 -6 6 -32 15 -58 l17 -49 12 29 c18 44 27 86 17 80 -5
-3 -13 -20 -17 -38 l-7 -33 -18 40 c-10 22 -19 35 -19 29z"/>
<path d="M1310 241 c0 -60 6 -66 11 -11 6 74 39 76 39 3 0 -53 7 -54 13 -2 7
73 37 76 37 3 0 -28 4 -43 10 -39 12 7 13 74 2 92 -4 7 -29 11 -60 10 l-52 -1
0 -55z"/>
<path d="M2327 293 c-13 -12 -7 -81 8 -93 16 -14 47 -10 52 6 2 7 -5 10 -20 7
-16 -3 -26 1 -30 11 -5 12 0 16 23 16 30 0 36 12 24 44 -6 16 -45 22 -57 9z
m47 -18 c4 -11 -2 -15 -21 -15 -21 0 -24 2 -13 15 7 8 16 15 20 15 4 0 10 -7
14 -15z"/>
<path d="M2412 243 c1 -47 2 -51 5 -18 8 73 43 85 43 14 0 -21 5 -39 11 -39 6
0 8 16 5 43 -3 23 -5 45 -5 50 -1 4 -14 7 -31 7 l-30 0 2 -57z"/>
<path d="M2511 286 c-30 -36 10 -119 41 -88 11 11 10 12 -3 7 -22 -8 -41 18
-37 52 2 21 8 28 25 27 12 0 20 3 17 8 -8 13 -30 9 -43 -6z"/>
<path d="M2586 292 c-11 -17 -13 -58 -5 -79 8 -23 43 -32 53 -14 4 5 -3 7 -13
4 -12 -3 -23 2 -30 15 -12 23 -6 32 26 32 20 0 24 5 21 23 -3 22 -41 37 -52
19z m42 -20 c2 -7 -6 -12 -17 -12 -21 0 -27 11 -14 24 9 9 26 2 31 -12z"/>
<path d="M1241 164 c0 -11 3 -14 6 -6 3 7 2 16 -1 19 -3 4 -6 -2 -5 -13z"/>
</g>
</svg>
